<mxfile host="Electron" modified="2023-06-26T18:12:30.633Z" agent="Mozilla/5.0 (X11; Linux x86_64) AppleWebKit/537.36 (KHTML, like Gecko) draw.io/21.3.7 Chrome/112.0.5615.204 Electron/24.5.0 Safari/537.36" etag="lwdkC6UzUdigd1r8tw4j" version="21.3.7" type="device">
  <diagram name="Page-1" id="qPqRIe6pFMWXluz6GCTL">
    <mxGraphModel dx="1195" dy="729" grid="1" gridSize="10" guides="1" tooltips="1" connect="1" arrows="1" fold="1" page="1" pageScale="1" pageWidth="850" pageHeight="1100" math="0" shadow="0">
      <root>
        <mxCell id="0" />
        <mxCell id="1" parent="0" />
        <mxCell id="a8OzjmlN-v2eZYr574MS-1" value="&lt;font style=&quot;font-size: 14px;&quot;&gt;&lt;b&gt;Defense in Depth&lt;/b&gt;&lt;/font&gt;" style="rounded=1;whiteSpace=wrap;html=1;arcSize=5;labelPosition=center;verticalLabelPosition=top;align=center;verticalAlign=bottom;" parent="1" vertex="1">
          <mxGeometry x="40" y="150" width="360" height="310" as="geometry" />
        </mxCell>
        <mxCell id="a8OzjmlN-v2eZYr574MS-2" value="&lt;font style=&quot;font-size: 14px;&quot;&gt;&lt;b&gt;Zero Trust Network&lt;/b&gt;&lt;/font&gt;" style="rounded=1;whiteSpace=wrap;html=1;arcSize=5;labelPosition=center;verticalLabelPosition=top;align=center;verticalAlign=bottom;" parent="1" vertex="1">
          <mxGeometry x="440" y="150" width="360" height="310" as="geometry" />
        </mxCell>
        <mxCell id="a8OzjmlN-v2eZYr574MS-27" style="edgeStyle=orthogonalEdgeStyle;rounded=0;orthogonalLoop=1;jettySize=auto;html=1;entryX=0.5;entryY=0;entryDx=0;entryDy=0;endArrow=none;endFill=0;" parent="1" source="a8OzjmlN-v2eZYr574MS-3" target="a8OzjmlN-v2eZYr574MS-24" edge="1">
          <mxGeometry relative="1" as="geometry">
            <Array as="points">
              <mxPoint x="137" y="175" />
            </Array>
          </mxGeometry>
        </mxCell>
        <mxCell id="a8OzjmlN-v2eZYr574MS-3" value="" style="html=1;verticalLabelPosition=middle;align=center;labelBackgroundColor=#ffffff;verticalAlign=middle;strokeWidth=2;strokeColor=#0080F0;shadow=0;dashed=0;shape=mxgraph.ios7.icons.cloud;labelPosition=center;" parent="1" vertex="1">
          <mxGeometry x="181.25" y="160" width="77.5" height="30" as="geometry" />
        </mxCell>
        <mxCell id="a8OzjmlN-v2eZYr574MS-5" value="" style="html=1;verticalLabelPosition=middle;align=center;labelBackgroundColor=#ffffff;verticalAlign=middle;strokeWidth=2;strokeColor=#0080F0;shadow=0;dashed=0;shape=mxgraph.ios7.icons.cloud;labelPosition=center;" parent="1" vertex="1">
          <mxGeometry x="581.25" y="160" width="77.5" height="30" as="geometry" />
        </mxCell>
        <mxCell id="a8OzjmlN-v2eZYr574MS-6" value="&lt;font style=&quot;font-size: 10px;&quot;&gt;Internet&lt;/font&gt;" style="text;html=1;strokeColor=none;fillColor=none;align=center;verticalAlign=middle;whiteSpace=wrap;rounded=0;" parent="1" vertex="1">
          <mxGeometry x="195" y="174" width="50" height="10" as="geometry" />
        </mxCell>
        <mxCell id="a8OzjmlN-v2eZYr574MS-7" value="Internet" style="text;html=1;strokeColor=none;fillColor=none;align=center;verticalAlign=middle;whiteSpace=wrap;rounded=0;fontSize=10;" parent="1" vertex="1">
          <mxGeometry x="595" y="174" width="50" height="10" as="geometry" />
        </mxCell>
        <mxCell id="a8OzjmlN-v2eZYr574MS-14" value="" style="rounded=1;whiteSpace=wrap;html=1;fillColor=#F9C74F;strokeColor=none;fillOpacity=50;" parent="1" vertex="1">
          <mxGeometry x="61.16" y="210" width="151" height="130" as="geometry" />
        </mxCell>
        <mxCell id="a8OzjmlN-v2eZYr574MS-15" value="" style="rounded=1;whiteSpace=wrap;html=1;strokeColor=none;fillColor=#90BE6D;fillOpacity=50;" parent="1" vertex="1">
          <mxGeometry x="230" y="210" width="148.83" height="130" as="geometry" />
        </mxCell>
        <mxCell id="a8OzjmlN-v2eZYr574MS-16" value="" style="rounded=1;whiteSpace=wrap;html=1;strokeColor=none;fillColor=#577590;fillOpacity=50;" parent="1" vertex="1">
          <mxGeometry x="61.16" y="356" width="317.67" height="90" as="geometry" />
        </mxCell>
        <mxCell id="a8OzjmlN-v2eZYr574MS-13" value="" style="image;html=1;image=img/lib/clip_art/networking/Firewall_02_128x128.png" parent="1" vertex="1">
          <mxGeometry x="192" y="320" width="56" height="40" as="geometry" />
        </mxCell>
        <mxCell id="a8OzjmlN-v2eZYr574MS-12" value="" style="verticalLabelPosition=bottom;sketch=0;aspect=fixed;html=1;verticalAlign=top;strokeColor=none;align=center;outlineConnect=0;shape=mxgraph.citrix.switch;" parent="1" vertex="1">
          <mxGeometry x="197.83" y="380" width="44.34" height="20" as="geometry" />
        </mxCell>
        <mxCell id="a8OzjmlN-v2eZYr574MS-11" value="" style="verticalLabelPosition=bottom;sketch=0;aspect=fixed;html=1;verticalAlign=top;strokeColor=none;align=center;outlineConnect=0;shape=mxgraph.citrix.switch;" parent="1" vertex="1">
          <mxGeometry x="282.24" y="265" width="44.34" height="20" as="geometry" />
        </mxCell>
        <mxCell id="a8OzjmlN-v2eZYr574MS-10" value="" style="verticalLabelPosition=bottom;sketch=0;aspect=fixed;html=1;verticalAlign=top;strokeColor=none;align=center;outlineConnect=0;shape=mxgraph.citrix.switch;" parent="1" vertex="1">
          <mxGeometry x="114.49000000000001" y="265" width="44.34" height="20" as="geometry" />
        </mxCell>
        <mxCell id="a8OzjmlN-v2eZYr574MS-17" value="&lt;font style=&quot;font-size: 10px;&quot;&gt;Corporate&lt;/font&gt;" style="text;html=1;strokeColor=none;fillColor=none;align=center;verticalAlign=middle;whiteSpace=wrap;rounded=0;fontSize=10;fontStyle=1" parent="1" vertex="1">
          <mxGeometry x="60" y="320" width="61.16" height="20" as="geometry" />
        </mxCell>
        <mxCell id="a8OzjmlN-v2eZYr574MS-18" value="&lt;font style=&quot;font-size: 10px;&quot;&gt;ICN - DMZ&lt;/font&gt;" style="text;html=1;strokeColor=none;fillColor=none;align=center;verticalAlign=middle;whiteSpace=wrap;rounded=0;fontSize=10;fontStyle=1" parent="1" vertex="1">
          <mxGeometry x="317.67" y="320" width="61.16" height="20" as="geometry" />
        </mxCell>
        <mxCell id="a8OzjmlN-v2eZYr574MS-19" value="&lt;font style=&quot;font-size: 10px;&quot;&gt;ICN - Control Center LAN&lt;/font&gt;" style="text;html=1;strokeColor=none;fillColor=none;align=center;verticalAlign=middle;whiteSpace=wrap;rounded=0;fontSize=10;fontStyle=1" parent="1" vertex="1">
          <mxGeometry x="61.16" y="426" width="128.84" height="20" as="geometry" />
        </mxCell>
        <mxCell id="a8OzjmlN-v2eZYr574MS-20" value="" style="rounded=1;whiteSpace=wrap;html=1;strokeColor=none;fillColor=#43AA8B;fillOpacity=50;arcSize=7;" parent="1" vertex="1">
          <mxGeometry x="461.16" y="210" width="317.67" height="234" as="geometry" />
        </mxCell>
        <mxCell id="a8OzjmlN-v2eZYr574MS-21" value="&lt;font style=&quot;font-size: 10px;&quot;&gt;Zero Trust Network&lt;/font&gt;" style="text;html=1;strokeColor=none;fillColor=none;align=center;verticalAlign=middle;whiteSpace=wrap;rounded=0;fontSize=10;fontStyle=1" parent="1" vertex="1">
          <mxGeometry x="461.14000000000004" y="424" width="98.84" height="20" as="geometry" />
        </mxCell>
        <mxCell id="a8OzjmlN-v2eZYr574MS-22" value="PEP" style="verticalLabelPosition=bottom;sketch=0;aspect=fixed;html=1;verticalAlign=top;strokeColor=none;align=center;outlineConnect=0;shape=mxgraph.citrix.switch;fontSize=10;" parent="1" vertex="1">
          <mxGeometry x="597.8299999999999" y="317" width="44.34" height="20" as="geometry" />
        </mxCell>
        <mxCell id="a8OzjmlN-v2eZYr574MS-28" style="edgeStyle=orthogonalEdgeStyle;rounded=0;orthogonalLoop=1;jettySize=auto;html=1;endArrow=none;endFill=0;" parent="1" source="a8OzjmlN-v2eZYr574MS-23" target="a8OzjmlN-v2eZYr574MS-22" edge="1">
          <mxGeometry relative="1" as="geometry" />
        </mxCell>
        <mxCell id="a8OzjmlN-v2eZYr574MS-23" value="" style="image;html=1;image=img/lib/clip_art/networking/Firewall_02_128x128.png" parent="1" vertex="1">
          <mxGeometry x="592" y="184" width="56" height="40" as="geometry" />
        </mxCell>
        <mxCell id="a8OzjmlN-v2eZYr574MS-29" style="edgeStyle=orthogonalEdgeStyle;rounded=0;orthogonalLoop=1;jettySize=auto;html=1;endArrow=none;endFill=0;" parent="1" source="a8OzjmlN-v2eZYr574MS-24" target="a8OzjmlN-v2eZYr574MS-10" edge="1">
          <mxGeometry relative="1" as="geometry" />
        </mxCell>
        <mxCell id="a8OzjmlN-v2eZYr574MS-24" value="" style="image;html=1;image=img/lib/clip_art/networking/Firewall_02_128x128.png" parent="1" vertex="1">
          <mxGeometry x="108.66000000000003" y="190" width="56" height="40" as="geometry" />
        </mxCell>
        <mxCell id="a8OzjmlN-v2eZYr574MS-32" value="" style="endArrow=none;html=1;rounded=0;" parent="1" edge="1">
          <mxGeometry width="50" height="50" relative="1" as="geometry">
            <mxPoint x="205" y="328" as="sourcePoint" />
            <mxPoint x="146" y="282" as="targetPoint" />
          </mxGeometry>
        </mxCell>
        <mxCell id="a8OzjmlN-v2eZYr574MS-33" value="" style="endArrow=none;html=1;rounded=0;" parent="1" edge="1">
          <mxGeometry width="50" height="50" relative="1" as="geometry">
            <mxPoint x="235" y="324" as="sourcePoint" />
            <mxPoint x="290" y="281" as="targetPoint" />
          </mxGeometry>
        </mxCell>
        <mxCell id="a8OzjmlN-v2eZYr574MS-34" value="" style="endArrow=none;html=1;rounded=0;" parent="1" edge="1">
          <mxGeometry width="50" height="50" relative="1" as="geometry">
            <mxPoint x="220" y="380" as="sourcePoint" />
            <mxPoint x="220" y="356" as="targetPoint" />
          </mxGeometry>
        </mxCell>
        <mxCell id="a8OzjmlN-v2eZYr574MS-36" value="" style="fontColor=#0066CC;verticalAlign=top;verticalLabelPosition=bottom;labelPosition=center;align=center;html=1;outlineConnect=0;fillColor=#CCCCCC;strokeColor=#6881B3;gradientColor=none;gradientDirection=north;strokeWidth=2;shape=mxgraph.networks.laptop;" parent="1" vertex="1">
          <mxGeometry x="70" y="267.5" width="19" height="15" as="geometry" />
        </mxCell>
        <mxCell id="a8OzjmlN-v2eZYr574MS-37" value="" style="fontColor=#0066CC;verticalAlign=top;verticalLabelPosition=bottom;labelPosition=center;align=center;html=1;outlineConnect=0;fillColor=#CCCCCC;strokeColor=#6881B3;gradientColor=none;gradientDirection=north;strokeWidth=2;shape=mxgraph.networks.storage;" parent="1" vertex="1">
          <mxGeometry x="81.12" y="230" width="18.92" height="20" as="geometry" />
        </mxCell>
        <mxCell id="a8OzjmlN-v2eZYr574MS-38" value="" style="fontColor=#0066CC;verticalAlign=top;verticalLabelPosition=bottom;labelPosition=center;align=center;html=1;outlineConnect=0;fillColor=#CCCCCC;strokeColor=#6881B3;gradientColor=none;gradientDirection=north;strokeWidth=2;shape=mxgraph.networks.desktop_pc;" parent="1" vertex="1">
          <mxGeometry x="103.57" y="300" width="15.47" height="20" as="geometry" />
        </mxCell>
        <mxCell id="a8OzjmlN-v2eZYr574MS-39" value="" style="fontColor=#0066CC;verticalAlign=top;verticalLabelPosition=bottom;labelPosition=center;align=center;html=1;outlineConnect=0;fillColor=#CCCCCC;strokeColor=#6881B3;gradientColor=none;gradientDirection=north;strokeWidth=2;shape=mxgraph.networks.rack;" parent="1" vertex="1">
          <mxGeometry x="127.15999999999998" y="362.5" width="19" height="25" as="geometry" />
        </mxCell>
        <mxCell id="a8OzjmlN-v2eZYr574MS-40" value="" style="fontColor=#0066CC;verticalAlign=top;verticalLabelPosition=bottom;labelPosition=center;align=center;html=1;outlineConnect=0;fillColor=#CCCCCC;strokeColor=#6881B3;gradientColor=none;gradientDirection=north;strokeWidth=2;shape=mxgraph.networks.desktop_pc;" parent="1" vertex="1">
          <mxGeometry x="158.82999999999998" y="400" width="15.47" height="20" as="geometry" />
        </mxCell>
        <mxCell id="a8OzjmlN-v2eZYr574MS-42" value="" style="fontColor=#0066CC;verticalAlign=top;verticalLabelPosition=bottom;labelPosition=center;align=center;html=1;outlineConnect=0;fillColor=#CCCCCC;strokeColor=#6881B3;gradientColor=none;gradientDirection=north;strokeWidth=2;shape=mxgraph.networks.mail_server;" parent="1" vertex="1">
          <mxGeometry x="170.83" y="230" width="19.17" height="20" as="geometry" />
        </mxCell>
        <mxCell id="a8OzjmlN-v2eZYr574MS-43" value="" style="fontColor=#0066CC;verticalAlign=top;verticalLabelPosition=bottom;labelPosition=center;align=center;html=1;outlineConnect=0;fillColor=#CCCCCC;strokeColor=#6881B3;gradientColor=none;gradientDirection=north;strokeWidth=2;shape=mxgraph.networks.proxy_server;" parent="1" vertex="1">
          <mxGeometry x="177.75" y="275" width="20.08" height="20" as="geometry" />
        </mxCell>
        <mxCell id="a8OzjmlN-v2eZYr574MS-45" value="" style="fontColor=#0066CC;verticalAlign=top;verticalLabelPosition=bottom;labelPosition=center;align=center;html=1;outlineConnect=0;fillColor=#CCCCCC;strokeColor=#6881B3;gradientColor=none;gradientDirection=north;strokeWidth=2;shape=mxgraph.networks.pc;" parent="1" vertex="1">
          <mxGeometry x="288.41" y="365" width="32" height="20" as="geometry" />
        </mxCell>
        <mxCell id="a8OzjmlN-v2eZYr574MS-46" value="" style="fontColor=#0066CC;verticalAlign=top;verticalLabelPosition=bottom;labelPosition=center;align=center;html=1;outlineConnect=0;fillColor=#CCCCCC;strokeColor=#6881B3;gradientColor=none;gradientDirection=north;strokeWidth=2;shape=mxgraph.networks.desktop_pc;" parent="1" vertex="1">
          <mxGeometry x="248" y="255" width="15.47" height="20" as="geometry" />
        </mxCell>
        <mxCell id="a8OzjmlN-v2eZYr574MS-47" value="" style="fontColor=#0066CC;verticalAlign=top;verticalLabelPosition=bottom;labelPosition=center;align=center;html=1;outlineConnect=0;fillColor=#CCCCCC;strokeColor=#6881B3;gradientColor=none;gradientDirection=north;strokeWidth=2;shape=mxgraph.networks.desktop_pc;" parent="1" vertex="1">
          <mxGeometry x="326.58" y="224" width="15.47" height="20" as="geometry" />
        </mxCell>
        <mxCell id="a8OzjmlN-v2eZYr574MS-48" value="" style="fontColor=#0066CC;verticalAlign=top;verticalLabelPosition=bottom;labelPosition=center;align=center;html=1;outlineConnect=0;fillColor=#CCCCCC;strokeColor=#6881B3;gradientColor=none;gradientDirection=north;strokeWidth=2;shape=mxgraph.networks.desktop_pc;" parent="1" vertex="1">
          <mxGeometry x="350" y="285" width="15.47" height="20" as="geometry" />
        </mxCell>
        <mxCell id="a8OzjmlN-v2eZYr574MS-50" value="" style="fontColor=#0066CC;verticalAlign=top;verticalLabelPosition=bottom;labelPosition=center;align=center;html=1;outlineConnect=0;fillColor=#CCCCCC;strokeColor=#6881B3;gradientColor=none;gradientDirection=north;strokeWidth=2;shape=mxgraph.networks.rack;" parent="1" vertex="1">
          <mxGeometry x="258.75" y="397.5" width="19" height="25" as="geometry" />
        </mxCell>
        <mxCell id="a8OzjmlN-v2eZYr574MS-51" value="&lt;font style=&quot;font-size: 8px;&quot;&gt;Antivirus&lt;/font&gt;" style="text;html=1;strokeColor=none;fillColor=none;align=center;verticalAlign=middle;whiteSpace=wrap;rounded=0;fontSize=8;" parent="1" vertex="1">
          <mxGeometry x="59.02" y="285" width="40.96" height="10" as="geometry" />
        </mxCell>
        <mxCell id="a8OzjmlN-v2eZYr574MS-52" value="" style="fontColor=#0066CC;verticalAlign=top;verticalLabelPosition=bottom;labelPosition=center;align=center;html=1;outlineConnect=0;fillColor=#CCCCCC;strokeColor=#6881B3;gradientColor=none;gradientDirection=north;strokeWidth=2;shape=mxgraph.networks.monitor;" parent="1" vertex="1">
          <mxGeometry x="207.5" y="420" width="25" height="19" as="geometry" />
        </mxCell>
        <mxCell id="a8OzjmlN-v2eZYr574MS-53" value="&lt;font style=&quot;font-size: 8px;&quot;&gt;HMI&lt;/font&gt;" style="text;html=1;strokeColor=none;fillColor=none;align=center;verticalAlign=middle;whiteSpace=wrap;rounded=0;fontSize=8;" parent="1" vertex="1">
          <mxGeometry x="227.5" y="436" width="17.5" height="10" as="geometry" />
        </mxCell>
        <mxCell id="a8OzjmlN-v2eZYr574MS-54" value="&lt;font style=&quot;font-size: 8px;&quot;&gt;Engineering Workstation&lt;/font&gt;" style="text;html=1;strokeColor=none;fillColor=none;align=center;verticalAlign=middle;whiteSpace=wrap;rounded=0;fontSize=8;" parent="1" vertex="1">
          <mxGeometry x="324.51000000000005" y="380" width="40.96" height="20" as="geometry" />
        </mxCell>
        <mxCell id="a8OzjmlN-v2eZYr574MS-55" value="&lt;font style=&quot;font-size: 8px;&quot;&gt;PLC&lt;/font&gt;" style="text;html=1;strokeColor=none;fillColor=none;align=center;verticalAlign=middle;whiteSpace=wrap;rounded=0;fontSize=8;" parent="1" vertex="1">
          <mxGeometry x="282.24" y="416" width="17.5" height="10" as="geometry" />
        </mxCell>
        <mxCell id="a8OzjmlN-v2eZYr574MS-56" value="&lt;font style=&quot;font-size: 8px;&quot;&gt;ICS Server&lt;/font&gt;" style="text;html=1;strokeColor=none;fillColor=none;align=center;verticalAlign=middle;whiteSpace=wrap;rounded=0;fontSize=8;" parent="1" vertex="1">
          <mxGeometry x="80" y="385" width="46.16" height="10" as="geometry" />
        </mxCell>
        <mxCell id="a8OzjmlN-v2eZYr574MS-57" value="&lt;font style=&quot;font-size: 8px;&quot;&gt;Services&lt;/font&gt;" style="text;html=1;strokeColor=none;fillColor=none;align=center;verticalAlign=middle;whiteSpace=wrap;rounded=0;fontSize=8;" parent="1" vertex="1">
          <mxGeometry x="166.54" y="257.5" width="40.96" height="10" as="geometry" />
        </mxCell>
        <mxCell id="a8OzjmlN-v2eZYr574MS-58" value="&lt;font style=&quot;font-size: 8px;&quot;&gt;Antivirus&lt;/font&gt;" style="text;html=1;strokeColor=none;fillColor=none;align=center;verticalAlign=middle;whiteSpace=wrap;rounded=0;fontSize=8;" parent="1" vertex="1">
          <mxGeometry x="235.26" y="240" width="40.96" height="10" as="geometry" />
        </mxCell>
        <mxCell id="a8OzjmlN-v2eZYr574MS-59" value="&lt;font style=&quot;font-size: 8px;&quot;&gt;Historian&lt;/font&gt;" style="text;html=1;strokeColor=none;fillColor=none;align=center;verticalAlign=middle;whiteSpace=wrap;rounded=0;fontSize=8;" parent="1" vertex="1">
          <mxGeometry x="327.77" y="247.5" width="40.96" height="10" as="geometry" />
        </mxCell>
        <mxCell id="a8OzjmlN-v2eZYr574MS-60" value="&lt;font style=&quot;font-size: 8px;&quot;&gt;Patch Management&lt;/font&gt;" style="text;html=1;strokeColor=none;fillColor=none;align=center;verticalAlign=middle;whiteSpace=wrap;rounded=0;fontSize=8;" parent="1" vertex="1">
          <mxGeometry x="123.7" y="300" width="40.96" height="20" as="geometry" />
        </mxCell>
        <mxCell id="a8OzjmlN-v2eZYr574MS-63" value="" style="fontColor=#0066CC;verticalAlign=top;verticalLabelPosition=bottom;labelPosition=center;align=center;html=1;outlineConnect=0;fillColor=#CCCCCC;strokeColor=#6881B3;gradientColor=none;gradientDirection=north;strokeWidth=2;shape=mxgraph.networks.pc;" parent="1" vertex="1">
          <mxGeometry x="604" y="396" width="32" height="20" as="geometry" />
        </mxCell>
        <mxCell id="a8OzjmlN-v2eZYr574MS-64" value="" style="fontColor=#0066CC;verticalAlign=top;verticalLabelPosition=bottom;labelPosition=center;align=center;html=1;outlineConnect=0;fillColor=#CCCCCC;strokeColor=#6881B3;gradientColor=none;gradientDirection=north;strokeWidth=2;shape=mxgraph.networks.desktop_pc;" parent="1" vertex="1">
          <mxGeometry x="689.7099999999999" y="250" width="15.47" height="20" as="geometry" />
        </mxCell>
        <mxCell id="a8OzjmlN-v2eZYr574MS-67" value="&lt;font style=&quot;font-size: 8px;&quot;&gt;Antivirus&lt;/font&gt;" style="text;html=1;strokeColor=none;fillColor=none;align=center;verticalAlign=middle;whiteSpace=wrap;rounded=0;fontSize=8;" parent="1" vertex="1">
          <mxGeometry x="500.02" y="275" width="40.96" height="10" as="geometry" />
        </mxCell>
        <mxCell id="a8OzjmlN-v2eZYr574MS-68" value="" style="fontColor=#0066CC;verticalAlign=top;verticalLabelPosition=bottom;labelPosition=center;align=center;html=1;outlineConnect=0;fillColor=#CCCCCC;strokeColor=#6881B3;gradientColor=none;gradientDirection=north;strokeWidth=2;shape=mxgraph.networks.laptop;" parent="1" vertex="1">
          <mxGeometry x="511.00000000000006" y="257.5" width="19" height="15" as="geometry" />
        </mxCell>
        <mxCell id="a8OzjmlN-v2eZYr574MS-71" value="&lt;font style=&quot;font-size: 8px;&quot;&gt;PDP&lt;/font&gt;" style="text;html=1;strokeColor=none;fillColor=none;align=center;verticalAlign=middle;whiteSpace=wrap;rounded=0;fontSize=8;" parent="1" vertex="1">
          <mxGeometry x="676.9599999999999" y="235" width="40.96" height="10" as="geometry" />
        </mxCell>
        <mxCell id="a8OzjmlN-v2eZYr574MS-72" value="" style="fontColor=#0066CC;verticalAlign=top;verticalLabelPosition=bottom;labelPosition=center;align=center;html=1;outlineConnect=0;fillColor=#CCCCCC;strokeColor=#6881B3;gradientColor=none;gradientDirection=north;strokeWidth=2;shape=mxgraph.networks.rack;" parent="1" vertex="1">
          <mxGeometry x="676.96" y="367.5" width="19" height="25" as="geometry" />
        </mxCell>
        <mxCell id="a8OzjmlN-v2eZYr574MS-73" value="&lt;font style=&quot;font-size: 8px;&quot;&gt;PLC&lt;/font&gt;" style="text;html=1;strokeColor=none;fillColor=none;align=center;verticalAlign=middle;whiteSpace=wrap;rounded=0;fontSize=8;" parent="1" vertex="1">
          <mxGeometry x="700.45" y="386" width="17.5" height="10" as="geometry" />
        </mxCell>
        <mxCell id="a8OzjmlN-v2eZYr574MS-74" value="&lt;font style=&quot;font-size: 8px;&quot;&gt;Engineering Workstation&lt;/font&gt;" style="text;html=1;strokeColor=none;fillColor=none;align=center;verticalAlign=middle;whiteSpace=wrap;rounded=0;fontSize=8;" parent="1" vertex="1">
          <mxGeometry x="636" y="411" width="40.96" height="20" as="geometry" />
        </mxCell>
        <mxCell id="a8OzjmlN-v2eZYr574MS-75" value="" style="fontColor=#0066CC;verticalAlign=top;verticalLabelPosition=bottom;labelPosition=center;align=center;html=1;outlineConnect=0;fillColor=#CCCCCC;strokeColor=#6881B3;gradientColor=none;gradientDirection=north;strokeWidth=2;shape=mxgraph.networks.rack;" parent="1" vertex="1">
          <mxGeometry x="540.9800000000001" y="367.5" width="19" height="25" as="geometry" />
        </mxCell>
        <mxCell id="a8OzjmlN-v2eZYr574MS-76" value="&lt;font style=&quot;font-size: 8px;&quot;&gt;ICS Server&lt;/font&gt;" style="text;html=1;strokeColor=none;fillColor=none;align=center;verticalAlign=middle;whiteSpace=wrap;rounded=0;fontSize=8;" parent="1" vertex="1">
          <mxGeometry x="493.82" y="390" width="46.16" height="10" as="geometry" />
        </mxCell>
        <mxCell id="a8OzjmlN-v2eZYr574MS-79" value="" style="fontColor=#0066CC;verticalAlign=top;verticalLabelPosition=bottom;labelPosition=center;align=center;html=1;outlineConnect=0;fillColor=#CCCCCC;strokeColor=#6881B3;gradientColor=none;gradientDirection=north;strokeWidth=2;shape=mxgraph.networks.desktop_pc;" parent="1" vertex="1">
          <mxGeometry x="717.95" y="317" width="15.47" height="20" as="geometry" />
        </mxCell>
        <mxCell id="a8OzjmlN-v2eZYr574MS-80" value="&lt;font style=&quot;font-size: 8px;&quot;&gt;Historian&lt;/font&gt;" style="text;html=1;strokeColor=none;fillColor=none;align=center;verticalAlign=middle;whiteSpace=wrap;rounded=0;fontSize=8;" parent="1" vertex="1">
          <mxGeometry x="719.1400000000001" y="340.5" width="40.96" height="10" as="geometry" />
        </mxCell>
        <mxCell id="a8OzjmlN-v2eZYr574MS-81" value="" style="fontColor=#0066CC;verticalAlign=top;verticalLabelPosition=bottom;labelPosition=center;align=center;html=1;outlineConnect=0;fillColor=#CCCCCC;strokeColor=#6881B3;gradientColor=none;gradientDirection=north;strokeWidth=2;shape=mxgraph.networks.monitor;" parent="1" vertex="1">
          <mxGeometry x="493.82" y="317" width="25" height="19" as="geometry" />
        </mxCell>
        <mxCell id="a8OzjmlN-v2eZYr574MS-82" value="&lt;font style=&quot;font-size: 8px;&quot;&gt;HMI&lt;/font&gt;" style="text;html=1;strokeColor=none;fillColor=none;align=center;verticalAlign=middle;whiteSpace=wrap;rounded=0;fontSize=8;" parent="1" vertex="1">
          <mxGeometry x="513.8199999999999" y="333" width="17.5" height="10" as="geometry" />
        </mxCell>
        <mxCell id="a8OzjmlN-v2eZYr574MS-84" value="" style="fontColor=#0066CC;verticalAlign=top;verticalLabelPosition=bottom;labelPosition=center;align=center;html=1;outlineConnect=0;fillColor=#CCCCCC;strokeColor=#6881B3;gradientColor=none;gradientDirection=north;strokeWidth=2;shape=mxgraph.networks.desktop_pc;" parent="1" vertex="1">
          <mxGeometry x="576.5300000000001" y="250" width="15.47" height="20" as="geometry" />
        </mxCell>
        <mxCell id="a8OzjmlN-v2eZYr574MS-85" value="&lt;font style=&quot;font-size: 8px;&quot;&gt;Patch Management&lt;/font&gt;" style="text;html=1;strokeColor=none;fillColor=none;align=center;verticalAlign=middle;whiteSpace=wrap;rounded=0;fontSize=8;" parent="1" vertex="1">
          <mxGeometry x="551.0400000000001" y="227.5" width="40.96" height="20" as="geometry" />
        </mxCell>
        <mxCell id="percwQRazy5cdRAGGPO7-1" value="" style="whiteSpace=wrap;html=1;aspect=fixed;dashed=1;strokeColor=#FF6666;fillColor=none;" vertex="1" parent="1">
          <mxGeometry x="672.44" y="227.5" width="50" height="50" as="geometry" />
        </mxCell>
        <mxCell id="percwQRazy5cdRAGGPO7-2" value="" style="endArrow=none;html=1;rounded=0;strokeColor=#999999;" edge="1" parent="1">
          <mxGeometry width="50" height="50" relative="1" as="geometry">
            <mxPoint x="630" y="320" as="sourcePoint" />
            <mxPoint x="690" y="269" as="targetPoint" />
          </mxGeometry>
        </mxCell>
        <mxCell id="percwQRazy5cdRAGGPO7-3" value="" style="endArrow=none;html=1;rounded=0;strokeColor=#999999;" edge="1" parent="1">
          <mxGeometry width="50" height="50" relative="1" as="geometry">
            <mxPoint x="642" y="326" as="sourcePoint" />
            <mxPoint x="717" y="332" as="targetPoint" />
          </mxGeometry>
        </mxCell>
        <mxCell id="percwQRazy5cdRAGGPO7-4" value="" style="endArrow=none;html=1;rounded=0;strokeColor=#999999;" edge="1" parent="1">
          <mxGeometry width="50" height="50" relative="1" as="geometry">
            <mxPoint x="631" y="334" as="sourcePoint" />
            <mxPoint x="678" y="368" as="targetPoint" />
          </mxGeometry>
        </mxCell>
        <mxCell id="percwQRazy5cdRAGGPO7-5" value="" style="endArrow=none;html=1;rounded=0;strokeColor=#999999;" edge="1" parent="1">
          <mxGeometry width="50" height="50" relative="1" as="geometry">
            <mxPoint x="618" y="337" as="sourcePoint" />
            <mxPoint x="617" y="397" as="targetPoint" />
          </mxGeometry>
        </mxCell>
        <mxCell id="percwQRazy5cdRAGGPO7-7" value="" style="endArrow=none;html=1;rounded=0;strokeColor=#999999;" edge="1" parent="1">
          <mxGeometry width="50" height="50" relative="1" as="geometry">
            <mxPoint x="607" y="334" as="sourcePoint" />
            <mxPoint x="560" y="367" as="targetPoint" />
          </mxGeometry>
        </mxCell>
        <mxCell id="percwQRazy5cdRAGGPO7-9" value="" style="endArrow=none;html=1;rounded=0;strokeColor=#999999;" edge="1" parent="1">
          <mxGeometry width="50" height="50" relative="1" as="geometry">
            <mxPoint x="598" y="331" as="sourcePoint" />
            <mxPoint x="518" y="326" as="targetPoint" />
          </mxGeometry>
        </mxCell>
        <mxCell id="percwQRazy5cdRAGGPO7-10" value="" style="endArrow=none;html=1;rounded=0;strokeColor=#999999;" edge="1" parent="1">
          <mxGeometry width="50" height="50" relative="1" as="geometry">
            <mxPoint x="600" y="322" as="sourcePoint" />
            <mxPoint x="527" y="267" as="targetPoint" />
          </mxGeometry>
        </mxCell>
        <mxCell id="percwQRazy5cdRAGGPO7-11" value="" style="endArrow=none;html=1;rounded=0;strokeColor=#999999;" edge="1" parent="1">
          <mxGeometry width="50" height="50" relative="1" as="geometry">
            <mxPoint x="613" y="318" as="sourcePoint" />
            <mxPoint x="592" y="269" as="targetPoint" />
          </mxGeometry>
        </mxCell>
        <mxCell id="percwQRazy5cdRAGGPO7-12" value="" style="endArrow=none;html=1;rounded=0;strokeColor=#999999;" edge="1" parent="1">
          <mxGeometry width="50" height="50" relative="1" as="geometry">
            <mxPoint x="129" y="267" as="sourcePoint" />
            <mxPoint x="100" y="247" as="targetPoint" />
          </mxGeometry>
        </mxCell>
        <mxCell id="percwQRazy5cdRAGGPO7-13" value="" style="endArrow=none;html=1;rounded=0;strokeColor=#999999;" edge="1" parent="1">
          <mxGeometry width="50" height="50" relative="1" as="geometry">
            <mxPoint x="114" y="275" as="sourcePoint" />
            <mxPoint x="85.49" y="275" as="targetPoint" />
          </mxGeometry>
        </mxCell>
        <mxCell id="percwQRazy5cdRAGGPO7-14" value="" style="endArrow=none;html=1;rounded=0;strokeColor=#999999;" edge="1" parent="1">
          <mxGeometry width="50" height="50" relative="1" as="geometry">
            <mxPoint x="129" y="283" as="sourcePoint" />
            <mxPoint x="118" y="300" as="targetPoint" />
          </mxGeometry>
        </mxCell>
        <mxCell id="percwQRazy5cdRAGGPO7-15" value="" style="endArrow=none;html=1;rounded=0;strokeColor=#999999;" edge="1" parent="1">
          <mxGeometry width="50" height="50" relative="1" as="geometry">
            <mxPoint x="171" y="249" as="sourcePoint" />
            <mxPoint x="146.16" y="267" as="targetPoint" />
          </mxGeometry>
        </mxCell>
        <mxCell id="percwQRazy5cdRAGGPO7-16" value="" style="endArrow=none;html=1;rounded=0;strokeColor=#999999;" edge="1" parent="1">
          <mxGeometry width="50" height="50" relative="1" as="geometry">
            <mxPoint x="178" y="285" as="sourcePoint" />
            <mxPoint x="158.82999999999998" y="277.5" as="targetPoint" />
          </mxGeometry>
        </mxCell>
        <mxCell id="percwQRazy5cdRAGGPO7-17" value="" style="endArrow=none;html=1;rounded=0;strokeColor=#999999;" edge="1" parent="1">
          <mxGeometry width="50" height="50" relative="1" as="geometry">
            <mxPoint x="327.77" y="244" as="sourcePoint" />
            <mxPoint x="312" y="266" as="targetPoint" />
          </mxGeometry>
        </mxCell>
        <mxCell id="percwQRazy5cdRAGGPO7-18" value="" style="endArrow=none;html=1;rounded=0;strokeColor=#999999;" edge="1" parent="1">
          <mxGeometry width="50" height="50" relative="1" as="geometry">
            <mxPoint x="350" y="294" as="sourcePoint" />
            <mxPoint x="322" y="281" as="targetPoint" />
          </mxGeometry>
        </mxCell>
        <mxCell id="percwQRazy5cdRAGGPO7-19" value="" style="endArrow=none;html=1;rounded=0;strokeColor=#999999;" edge="1" parent="1">
          <mxGeometry width="50" height="50" relative="1" as="geometry">
            <mxPoint x="282" y="273" as="sourcePoint" />
            <mxPoint x="264" y="270" as="targetPoint" />
          </mxGeometry>
        </mxCell>
        <mxCell id="percwQRazy5cdRAGGPO7-20" value="" style="endArrow=none;html=1;rounded=0;strokeColor=#999999;" edge="1" parent="1">
          <mxGeometry width="50" height="50" relative="1" as="geometry">
            <mxPoint x="259" y="409" as="sourcePoint" />
            <mxPoint x="232.5" y="396" as="targetPoint" />
          </mxGeometry>
        </mxCell>
        <mxCell id="percwQRazy5cdRAGGPO7-21" value="" style="endArrow=none;html=1;rounded=0;strokeColor=#999999;" edge="1" parent="1">
          <mxGeometry width="50" height="50" relative="1" as="geometry">
            <mxPoint x="288" y="374" as="sourcePoint" />
            <mxPoint x="242.17" y="386" as="targetPoint" />
          </mxGeometry>
        </mxCell>
        <mxCell id="percwQRazy5cdRAGGPO7-23" value="" style="endArrow=none;html=1;rounded=0;strokeColor=#999999;" edge="1" parent="1">
          <mxGeometry width="50" height="50" relative="1" as="geometry">
            <mxPoint x="200" y="394" as="sourcePoint" />
            <mxPoint x="174.29999999999998" y="400" as="targetPoint" />
          </mxGeometry>
        </mxCell>
        <mxCell id="percwQRazy5cdRAGGPO7-24" value="" style="endArrow=none;html=1;rounded=0;strokeColor=#999999;" edge="1" parent="1">
          <mxGeometry width="50" height="50" relative="1" as="geometry">
            <mxPoint x="219" y="420" as="sourcePoint" />
            <mxPoint x="218" y="400" as="targetPoint" />
          </mxGeometry>
        </mxCell>
        <mxCell id="percwQRazy5cdRAGGPO7-25" value="" style="endArrow=none;html=1;rounded=0;strokeColor=#999999;" edge="1" parent="1">
          <mxGeometry width="50" height="50" relative="1" as="geometry">
            <mxPoint x="198" y="386" as="sourcePoint" />
            <mxPoint x="146" y="371" as="targetPoint" />
          </mxGeometry>
        </mxCell>
      </root>
    </mxGraphModel>
  </diagram>
</mxfile>
